<svg xmlns="http://www.w3.org/2000/svg" fill-rule="evenodd" clip-rule="evenodd" image-rendering="optimizeQuality" shape-rendering="geometricPrecision" text-rendering="geometricPrecision" viewBox="0 0 6.827 6.827"><path fill="#c0ca33" d="M0 0h6.827v6.827H0z"/><path fill="none" d="M.853.853h5.12v5.12H.853z"/><path fill="#fff" fill-rule="nonzero" d="M4.577 1.319H3.81v-.223a.14.14 0 0 0-.038-.097.126.126 0 0 0-.09-.039h-.537a.125.125 0 0 0-.09.039.14.14 0 0 0-.038.097v.223H2.25c-.12 0-.229.05-.308.131a.46.46 0 0 0-.129.322v3.641c0 .126.05.24.13.322a.428.428 0 0 0 .307.132h2.327c.12 0 .229-.05.308-.132a.46.46 0 0 0 .128-.322V1.771a.46.46 0 0 0-.128-.32.428.428 0 0 0-.307-.133zm-.553-.214h.554a.64.64 0 0 1 .46.197c.116.12.189.286.189.469v3.642c0 .183-.073.35-.19.47a.639.639 0 0 1-.46.197H2.25a.64.64 0 0 1-.46-.197.673.673 0 0 1-.19-.47V1.772c0-.183.073-.35.19-.47a.64.64 0 0 1 .46-.197h.553v-.009c0-.096.038-.182.1-.246a.337.337 0 0 1 .242-.103h.536c.095 0 .181.04.243.103.062.064.1.15.1.246v.01z"/><path fill="#fff" fill-rule="nonzero" d="M3.307 2.56a.107.107 0 000 .213h1.28a.107.107 0 000-.213h-1.28zM3.307 3.733a.107.107 0 000 .214h1.28a.107.107 0 000-.214h-1.28zM3.307 5.013a.107.107 0 000 .214h1.28a.107.107 0 000-.214h-1.28zM2.1 4.936l.24.228.567-.647.16.14-.64.73-.073.083-.08-.076-.32-.304zM2.133 2.24h.747v.853h-.853V2.24h.106zm.534.213H2.24v.427h.427v-.427zM2.133 3.413h.747v.854h-.853v-.854h.106zm.534.214H2.24v.426h.427v-.426z"/></svg>