<svg xmlns="http://www.w3.org/2000/svg" fill-rule="evenodd" clip-rule="evenodd" image-rendering="optimizeQuality" shape-rendering="geometricPrecision" text-rendering="geometricPrecision" viewBox="0 0 6.827 6.827"><path fill="#424242" d="M0 0h6.827v6.827H0z"/><path fill="none" d="M.853.853h5.12v5.12H.853z"/><path fill="none" d="M.853.853h5.12v5.12H.853z"/><path fill="#fff" fill-rule="nonzero" d="M.96 5.013h3.192l.117.214H.96v-.214zm4.408 0h.179v.214h-.062l-.117-.214zM.96 4.16h2.724l.117.213H.96V4.16zm3.94 0h.647v.213h-.53L4.9 4.16zM.96 3.307h2.26l.016.186.002.027H.96v-.213zm3.472 0h1.115v.213h-.998l-.117-.213zM.96 1.6h4.587v.213H.96V1.6zm0 .853h2.188l.018.214H.96v-.214zm2.749 0h1.838v.214H3.978l-.27-.214zM3.715 2.865l-.226-.179.024.29.202-.11zm1.768 2.802l-.561.307-.093.052-.052-.094-1.333-2.431-.051-.094.093-.05.561-.309.093-.05.052.092 1.333 2.432.051.093-.093.052zm-.57.07l.374-.206-1.23-2.245-.375.206 1.23 2.245zm-1.485-3.37l.545.431.125.1-.14.077-.486.267-.144.078-.013-.163-.059-.698-.02-.245.192.153z"/></svg>