<svg xmlns="http://www.w3.org/2000/svg" fill-rule="evenodd" clip-rule="evenodd" image-rendering="optimizeQuality" shape-rendering="geometricPrecision" text-rendering="geometricPrecision" viewBox="0 0 6.827 6.827"><path fill="#ffca28" d="M0 0h6.827v6.827H0z"/><path fill="#fff" fill-rule="nonzero" d="M5.027 1.8a2.285 2.285 0 0 0-1.614-.669 2.276 2.276 0 0 0-2.282 2.282 2.276 2.276 0 0 0 2.282 2.282 2.276 2.276 0 0 0 2.282-2.282A2.276 2.276 0 0 0 5.027 1.8zm-.66-.693a2.5 2.5 0 0 1 1.352 3.26A2.5 2.5 0 0 1 2.46 5.72a2.5 2.5 0 0 1-1.352-3.26 2.5 2.5 0 0 1 3.26-1.352z"/><path fill="none" d="M.853.853h5.12v5.12H.853z"/><path fill="none" d="M.853.853h5.12v5.12H.853z"/><path fill="#fff" fill-rule="nonzero" d="M4.342 4.055a.507.507 0 0 1-.36-.869.508.508 0 1 1 .72.72.508.508 0 0 1-.36.149zm-.209-.3a.295.295 0 0 0 .505-.21.295.295 0 0 0-.296-.295.294.294 0 0 0-.296.296c0 .081.033.155.087.209z"/><path fill="#fff" fill-rule="nonzero" d="M4.064 4.144l-.012.007a.531.531 0 00-.214.216.573.573 0 00-.059.22h1.126a.575.575 0 00-.06-.22.53.53 0 00-.213-.216l-.012-.008.106-.184.012.008c.138.079.235.182.297.302a.84.84 0 01.084.429l-.005.102H3.57l-.005-.102a.839.839 0 01.084-.429.74.74 0 01.296-.302h.001l.013-.008.105.185zM3.413 2.298a.507.507 0 01-.36-.868.508.508 0 11.72.719.508.508 0 01-.36.15zm-.209-.3a.295.295 0 00.505-.209.295.295 0 00-.296-.296.294.294 0 00-.295.296c0 .082.033.156.086.21z"/><path fill="#fff" fill-rule="nonzero" d="M3.135 2.387l-.012.007a.531.531 0 0 0-.213.216.573.573 0 0 0-.06.22h1.126a.575.575 0 0 0-.06-.22.53.53 0 0 0-.213-.216l-.012-.007.106-.184.012.007c.138.08.235.182.297.302a.84.84 0 0 1 .084.43l-.004.101H2.64l-.004-.101a.839.839 0 0 1 .084-.43.74.74 0 0 1 .296-.302l.013-.008.105.185z"/><g><path fill="#fff" fill-rule="nonzero" d="M2.485 4.055a.507.507 0 0 1-.36-.869.508.508 0 1 1 .72.72.508.508 0 0 1-.36.149zm-.21-.3a.295.295 0 0 0 .505-.21.295.295 0 0 0-.295-.295.294.294 0 0 0-.296.296c0 .081.033.155.087.209z"/><path fill="#fff" fill-rule="nonzero" d="M2.207 4.144l-.012.007a.531.531 0 0 0-.214.216.573.573 0 0 0-.06.22h1.127a.575.575 0 0 0-.06-.22.53.53 0 0 0-.213-.216l-.013-.008.106-.184.013.008c.138.079.234.182.296.302a.84.84 0 0 1 .085.429l-.005.102H1.713l-.005-.102a.839.839 0 0 1 .084-.429.74.74 0 0 1 .296-.302l.014-.008.105.185z"/></g></svg>